<mxfile host="app.diagrams.net" modified="2020-10-07T12:31:28.810Z" agent="5.0 (Windows)" etag="_QDCmntkDJqFnQ4dSlm_" version="13.7.7" type="github">
  <diagram id="OxUzGTRTwcbvjHJ4G2xj" name="Page-1">
    <mxGraphModel dx="910" dy="487" grid="1" gridSize="10" guides="1" tooltips="1" connect="1" arrows="1" fold="1" page="1" pageScale="1" pageWidth="1169" pageHeight="827" math="0" shadow="0">
      <root>
        <mxCell id="0" />
        <mxCell id="1" parent="0" />
        <mxCell id="N_4OvYnGCnd65pXJyl-2-1" value="Assembly Broadcasting Process" style="swimlane;html=1;childLayout=stackLayout;resizeParent=1;resizeParentMax=0;horizontal=1;startSize=20;horizontalStack=0;" vertex="1" parent="1">
          <mxGeometry x="20" y="20" width="1130" height="580" as="geometry" />
        </mxCell>
        <mxCell id="N_4OvYnGCnd65pXJyl-2-2" value="System Support/ABU Officer" style="swimlane;html=1;startSize=20;horizontal=0;" vertex="1" parent="N_4OvYnGCnd65pXJyl-2-1">
          <mxGeometry y="20" width="1130" height="220" as="geometry" />
        </mxCell>
        <mxCell id="N_4OvYnGCnd65pXJyl-2-5" value="Start" style="rounded=1;whiteSpace=wrap;html=1;" vertex="1" parent="N_4OvYnGCnd65pXJyl-2-2">
          <mxGeometry x="274" y="10" width="100" height="50" as="geometry" />
        </mxCell>
        <mxCell id="N_4OvYnGCnd65pXJyl-2-8" value="System records video during live plenary proceedings" style="rounded=0;whiteSpace=wrap;html=1;" vertex="1" parent="N_4OvYnGCnd65pXJyl-2-2">
          <mxGeometry x="264" y="140" width="120" height="60" as="geometry" />
        </mxCell>
        <mxCell id="N_4OvYnGCnd65pXJyl-2-7" value="" style="edgeStyle=orthogonalEdgeStyle;rounded=0;orthogonalLoop=1;jettySize=auto;html=1;entryX=0.5;entryY=0;entryDx=0;entryDy=0;" edge="1" parent="N_4OvYnGCnd65pXJyl-2-2" source="N_4OvYnGCnd65pXJyl-2-5" target="N_4OvYnGCnd65pXJyl-2-8">
          <mxGeometry relative="1" as="geometry">
            <mxPoint x="324" y="125" as="targetPoint" />
          </mxGeometry>
        </mxCell>
        <mxCell id="N_4OvYnGCnd65pXJyl-2-11" value="" style="edgeStyle=orthogonalEdgeStyle;rounded=0;orthogonalLoop=1;jettySize=auto;html=1;entryX=1;entryY=0.5;entryDx=0;entryDy=0;" edge="1" parent="N_4OvYnGCnd65pXJyl-2-2" source="N_4OvYnGCnd65pXJyl-2-9" target="N_4OvYnGCnd65pXJyl-2-8">
          <mxGeometry relative="1" as="geometry">
            <mxPoint x="444" y="170" as="targetPoint" />
          </mxGeometry>
        </mxCell>
        <mxCell id="N_4OvYnGCnd65pXJyl-2-9" value="ABU Officer notes down all the happenings observed at the plenary" style="shape=process;whiteSpace=wrap;html=1;backgroundOutline=1;" vertex="1" parent="N_4OvYnGCnd65pXJyl-2-2">
          <mxGeometry x="464" y="140" width="170" height="60" as="geometry" />
        </mxCell>
        <mxCell id="N_4OvYnGCnd65pXJyl-2-3" value="SYSTEM SUPPORT/ABU ADMIN" style="swimlane;html=1;startSize=20;horizontal=0;" vertex="1" parent="N_4OvYnGCnd65pXJyl-2-1">
          <mxGeometry y="240" width="1130" height="220" as="geometry" />
        </mxCell>
        <mxCell id="N_4OvYnGCnd65pXJyl-2-12" value="ERP system automatically notifies ABU Officer&amp;nbsp; of the Video segment" style="whiteSpace=wrap;html=1;rounded=0;" vertex="1" parent="N_4OvYnGCnd65pXJyl-2-3">
          <mxGeometry x="264" y="60" width="120" height="60" as="geometry" />
        </mxCell>
        <mxCell id="N_4OvYnGCnd65pXJyl-2-4" value="Hansard Editor" style="swimlane;html=1;startSize=20;horizontal=0;" vertex="1" parent="N_4OvYnGCnd65pXJyl-2-1">
          <mxGeometry y="460" width="1130" height="120" as="geometry" />
        </mxCell>
        <mxCell id="N_4OvYnGCnd65pXJyl-2-18" value="End" style="rounded=1;whiteSpace=wrap;html=1;" vertex="1" parent="N_4OvYnGCnd65pXJyl-2-4">
          <mxGeometry x="574" y="45" width="100" height="50" as="geometry" />
        </mxCell>
        <mxCell id="N_4OvYnGCnd65pXJyl-2-14" value="ABU officer gets segmented Video recordings from the system and pushes them to an online channel/YouTube/twitter/Facebook etc" style="whiteSpace=wrap;html=1;rounded=0;" vertex="1" parent="N_4OvYnGCnd65pXJyl-2-4">
          <mxGeometry x="204" y="30" width="240" height="80" as="geometry" />
        </mxCell>
        <mxCell id="N_4OvYnGCnd65pXJyl-2-17" value="" style="edgeStyle=orthogonalEdgeStyle;rounded=0;orthogonalLoop=1;jettySize=auto;html=1;entryX=0;entryY=0.5;entryDx=0;entryDy=0;" edge="1" parent="N_4OvYnGCnd65pXJyl-2-4" source="N_4OvYnGCnd65pXJyl-2-14" target="N_4OvYnGCnd65pXJyl-2-18">
          <mxGeometry relative="1" as="geometry">
            <mxPoint x="604" y="70" as="targetPoint" />
          </mxGeometry>
        </mxCell>
        <mxCell id="N_4OvYnGCnd65pXJyl-2-13" value="" style="edgeStyle=orthogonalEdgeStyle;rounded=0;orthogonalLoop=1;jettySize=auto;html=1;" edge="1" parent="N_4OvYnGCnd65pXJyl-2-1" source="N_4OvYnGCnd65pXJyl-2-8" target="N_4OvYnGCnd65pXJyl-2-12">
          <mxGeometry relative="1" as="geometry" />
        </mxCell>
        <mxCell id="N_4OvYnGCnd65pXJyl-2-15" value="" style="edgeStyle=orthogonalEdgeStyle;rounded=0;orthogonalLoop=1;jettySize=auto;html=1;" edge="1" parent="N_4OvYnGCnd65pXJyl-2-1" source="N_4OvYnGCnd65pXJyl-2-12" target="N_4OvYnGCnd65pXJyl-2-14">
          <mxGeometry relative="1" as="geometry" />
        </mxCell>
      </root>
    </mxGraphModel>
  </diagram>
</mxfile>
